<svg xmlns="http://www.w3.org/2000/svg" width="1600" height="1040" viewBox="0 0 1600 1040">
  <defs>
    <linearGradient id="bg" x1="0" y1="0" x2="1" y2="1">
      <stop offset="0%" stop-color="#f5fbff"/>
      <stop offset="100%" stop-color="#eef4ff"/>
    </linearGradient>
    <linearGradient id="boxBlue" x1="0" y1="0" x2="1" y2="1">
      <stop offset="0%" stop-color="#1d4ed8"/>
      <stop offset="100%" stop-color="#2563eb"/>
    </linearGradient>
    <linearGradient id="boxTeal" x1="0" y1="0" x2="1" y2="1">
      <stop offset="0%" stop-color="#0f766e"/>
      <stop offset="100%" stop-color="#14b8a6"/>
    </linearGradient>
    <linearGradient id="boxSlate" x1="0" y1="0" x2="1" y2="1">
      <stop offset="0%" stop-color="#334155"/>
      <stop offset="100%" stop-color="#475569"/>
    </linearGradient>
    <filter id="shadow" x="-20%" y="-20%" width="140%" height="160%">
      <feDropShadow dx="0" dy="6" stdDeviation="6" flood-opacity="0.16"/>
    </filter>
    <marker id="arrow" markerWidth="10" markerHeight="10" refX="8" refY="5" orient="auto">
      <path d="M0,0 L10,5 L0,10 z" fill="#334155"/>
    </marker>
  </defs>

  <rect width="1600" height="1040" fill="url(#bg)"/>
  <text x="60" y="58" font-size="34" font-family="Segoe UI, Arial" fill="#0f172a" font-weight="700">Agentic Onboarding - Platform Topology</text>
  <text x="60" y="92" font-size="18" font-family="Segoe UI, Arial" fill="#334155">Distributed decision mesh with centralized policy authority</text>

  <rect x="70" y="150" rx="16" ry="16" width="290" height="120" fill="url(#boxBlue)" filter="url(#shadow)"/>
  <text x="95" y="198" font-size="22" font-family="Segoe UI, Arial" fill="#fff" font-weight="600">Client Experience</text>
  <text x="95" y="228" font-size="16" font-family="Segoe UI, Arial" fill="#dbeafe">Chat UX + Document Uploads</text>

  <rect x="430" y="150" rx="16" ry="16" width="320" height="120" fill="url(#boxBlue)" filter="url(#shadow)"/>
  <text x="458" y="198" font-size="22" font-family="Segoe UI, Arial" fill="#fff" font-weight="600">Express API Layer</text>
  <text x="458" y="228" font-size="16" font-family="Segoe UI, Arial" fill="#dbeafe">/onboarding/*  /chat/*  /trace/*</text>

  <rect x="820" y="130" rx="16" ry="16" width="360" height="150" fill="url(#boxSlate)" filter="url(#shadow)"/>
  <text x="848" y="182" font-size="24" font-family="Segoe UI, Arial" fill="#fff" font-weight="700">Orchestration Core</text>
  <text x="848" y="214" font-size="16" font-family="Segoe UI, Arial" fill="#e2e8f0">Event Bus + State Machine + Retry Layer</text>
  <text x="848" y="238" font-size="16" font-family="Segoe UI, Arial" fill="#e2e8f0">Trace-Aware Execution Control</text>

  <rect x="1270" y="150" rx="16" ry="16" width="250" height="120" fill="url(#boxTeal)" filter="url(#shadow)"/>
  <text x="1296" y="198" font-size="22" font-family="Segoe UI, Arial" fill="#fff" font-weight="600">Decision Gateway</text>
  <text x="1296" y="228" font-size="16" font-family="Segoe UI, Arial" fill="#ccfbf1">Final Policy Authority</text>

  <line x1="360" y1="210" x2="430" y2="210" stroke="#334155" stroke-width="3" marker-end="url(#arrow)"/>
  <line x1="750" y1="210" x2="820" y2="210" stroke="#334155" stroke-width="3" marker-end="url(#arrow)"/>
  <line x1="1180" y1="210" x2="1270" y2="210" stroke="#334155" stroke-width="3" marker-end="url(#arrow)"/>

  <rect x="110" y="380" rx="14" ry="14" width="220" height="90" fill="#1e293b" filter="url(#shadow)"/>
  <rect x="370" y="380" rx="14" ry="14" width="220" height="90" fill="#1e293b" filter="url(#shadow)"/>
  <rect x="630" y="380" rx="14" ry="14" width="220" height="90" fill="#1e293b" filter="url(#shadow)"/>
  <rect x="890" y="380" rx="14" ry="14" width="220" height="90" fill="#1e293b" filter="url(#shadow)"/>
  <rect x="1150" y="380" rx="14" ry="14" width="220" height="90" fill="#1e293b" filter="url(#shadow)"/>

  <text x="178" y="430" font-size="21" font-family="Segoe UI, Arial" fill="#fff" font-weight="600">KYC Slot</text>
  <text x="424" y="430" font-size="21" font-family="Segoe UI, Arial" fill="#fff" font-weight="600">Address Slot</text>
  <text x="704" y="430" font-size="21" font-family="Segoe UI, Arial" fill="#fff" font-weight="600">AML Slot</text>
  <text x="964" y="430" font-size="21" font-family="Segoe UI, Arial" fill="#fff" font-weight="600">Credit Slot</text>
  <text x="1232" y="430" font-size="21" font-family="Segoe UI, Arial" fill="#fff" font-weight="600">Risk Slot</text>

  <line x1="1000" y1="280" x2="220" y2="380" stroke="#475569" stroke-width="2.5" marker-end="url(#arrow)"/>
  <line x1="1000" y1="280" x2="480" y2="380" stroke="#475569" stroke-width="2.5" marker-end="url(#arrow)"/>
  <line x1="1000" y1="280" x2="740" y2="380" stroke="#475569" stroke-width="2.5" marker-end="url(#arrow)"/>
  <line x1="1000" y1="280" x2="1000" y2="380" stroke="#475569" stroke-width="2.5" marker-end="url(#arrow)"/>
  <line x1="1000" y1="280" x2="1260" y2="380" stroke="#475569" stroke-width="2.5" marker-end="url(#arrow)"/>

  <polyline points="220,470 220,515 1295,515 1295,285" stroke="#0f766e" stroke-width="2.4" fill="none" marker-end="url(#arrow)"/>
  <polyline points="480,470 480,530 1310,530 1310,285" stroke="#0f766e" stroke-width="2.4" fill="none" marker-end="url(#arrow)"/>
  <polyline points="740,470 740,545 1325,545 1325,285" stroke="#0f766e" stroke-width="2.4" fill="none" marker-end="url(#arrow)"/>
  <polyline points="1000,470 1000,560 1340,560 1340,285" stroke="#0f766e" stroke-width="2.4" fill="none" marker-end="url(#arrow)"/>
  <polyline points="1260,470 1260,575 1355,575 1355,285" stroke="#0f766e" stroke-width="2.4" fill="none" marker-end="url(#arrow)"/>

  <rect x="70" y="560" rx="16" ry="16" width="1460" height="330" fill="#ffffff" stroke="#cbd5e1" stroke-width="2"/>
  <text x="100" y="610" font-size="24" font-family="Segoe UI, Arial" fill="#0f172a" font-weight="700">Control Attributes and Assurance Signals</text>
  <text x="100" y="655" font-size="18" font-family="Segoe UI, Arial" fill="#334155">- Slot-level versioning and endpoint routing via YAML</text>
  <text x="100" y="690" font-size="18" font-family="Segoe UI, Arial" fill="#334155">- Decision centralization: confidence thresholds, contradiction flags, provider risk flags</text>
  <text x="100" y="725" font-size="18" font-family="Segoe UI, Arial" fill="#334155">- Trace correlation: state transitions, step-level timing, and final decision provenance</text>
  <text x="100" y="760" font-size="18" font-family="Segoe UI, Arial" fill="#334155">- Resilience envelope: bounded retries, timeout governance, and deterministic fallback semantics</text>
  <text x="100" y="795" font-size="18" font-family="Segoe UI, Arial" fill="#334155">- Explainability fabric: reasons, policy references, flags, and metadata in every stage output</text>
</svg>